# xmcd
#
# Track frame offsets:
#	150
#	14640
#	17440
#	20102
#	22377
#	28620
#	34865
#	49005
#	57505
#	72220
#	83322
#	91817
#	99732
#	109035
#	113562
#	114727
#	116860
#	122002
#	124540
#	126882
#	137560
#	139307
#	147565
#	154712
#	159442
#	161460
#	171125
#	181962
#	194000
#	207662
#
# Disc length: 3279 seconds
#
# Revision: 1
# Processed by: cddbd v1.5.1PL0 Copyright (c) Steve Scherf et al.
# Submitted via: CDex 1.50Beta5
#
DISCID=ad0ccd1e
DTITLE=KENJI KAWAI 川井憲次 - THE DOG'S EAR
DYEAR=1900
DGENRE=Soundtrack
TTITLE0=サンサーラ・ナーガ予告BGM
TTITLE1=「迷宮物件 File538」より OSAKANA
TTITLE2=埋立地の小さな神様 ‐ プロローグ
TTITLE3=夜盗の如く
TTITLE4=陽炎の中の日常
TTITLE5=調査
TTITLE6=調査
TTITLE7=調査
TTITLE8=調査
TTITLE9=埋立地の小さな神様
TTITLE10=ぐうたらな神様
TTITLE11=機動警察パトレイバー劇場版 予告BGM
TTITLE12=「御先祖様万々歳」より 呪いの飛行船
TTITLE13=金属バットVSメタルヘッドのドライバー
TTITLE14=黄色い花
TTITLE15=OPEN SESAME
TTITLE16=責任追及のヘヴィメタル
TTITLE17=黄色い花
TTITLE18=分節化された舞踏
TTITLE19=THE TIME LOW
TTITLE20=六小節の悲劇
TTITLE21=永遠のアナーキスト
TTITLE22=虚構との闘争
TTITLE23=MANBIKING
TTITLE24=寸足らずな活劇
TTITLE25=それは私だったんだよ
TTITLE26=悲しき繰り言
TTITLE27=「捜査 HUNT OUT」
TTITLE28=功殻機動隊プロモーションBGM
TTITLE29=THE DOG'S EAR
EXTD=
EXTT0=
EXTT1=
EXTT2=
EXTT3=
EXTT4=
EXTT5=
EXTT6=
EXTT7=
EXTT8=
EXTT9=
EXTT10=
EXTT11=
EXTT12=
EXTT13=
EXTT14=
EXTT15=
EXTT16=
EXTT17=
EXTT18=
EXTT19=
EXTT20=
EXTT21=
EXTT22=
EXTT23=
EXTT24=
EXTT25=
EXTT26=
EXTT27=
EXTT28=
EXTT29=
PLAYORDER=
